<svg width="33" height="33" viewBox="0 0 33 33" fill="none" xmlns="http://www.w3.org/2000/svg">
<rect x="0.5" y="0.516144" width="32" height="32" rx="16" fill="white"/>
<path d="M18.1448 8.00006C17.9811 8.2452 17.8097 8.48231 17.6358 8.71705C17.4624 8.95226 17.2847 9.1831 17.1059 9.4128C16.8505 9.73874 16.591 10.0607 16.3273 10.3784C16.246 10.4765 16.1644 10.5743 16.082 10.6714C16.0565 10.7017 16.0309 10.7321 16.0052 10.7623C15.9524 10.8246 15.8996 10.8867 15.8465 10.9488C15.1467 11.767 14.4237 12.5616 13.6835 13.3388C13.1258 13.9235 12.558 14.498 11.9779 15.0599H11.9777C11.7707 15.2605 11.5621 15.4594 11.3518 15.6567C11.3475 15.6607 11.3431 15.6648 11.3387 15.6689C11.3007 15.7045 11.2629 15.74 11.2248 15.7753C10.8029 16.1691 10.3728 16.5546 9.93485 16.9317C9.71494 17.1196 9.49415 17.3064 9.26907 17.4888C9.04439 17.6717 8.81718 17.8519 8.58215 18.0243C8.74558 17.7789 8.9169 17.5416 9.09057 17.3068C9.26395 17.0715 9.44155 16.8405 9.6203 16.6107C9.89126 16.2649 10.1667 15.9235 10.4468 15.587C10.5377 15.4779 10.6289 15.3692 10.7208 15.2611C10.7452 15.2322 10.7697 15.2034 10.7944 15.1746C11.5208 14.3211 12.2725 13.4936 13.0434 12.6856C13.7976 11.8963 14.5695 11.1251 15.3656 10.3784C15.4113 10.3356 15.4571 10.2926 15.503 10.25C15.6169 10.1437 15.7314 10.038 15.8465 9.93303C16.1577 9.64872 16.4732 9.369 16.793 9.09344C17.0126 8.90553 17.2335 8.71866 17.4584 8.53615C17.683 8.35308 17.91 8.17258 18.1448 8.00006Z" fill="black"/>
<path d="M13.5482 8C13.7829 8.17262 14.0099 8.35302 14.2345 8.53604C14.4595 8.71854 14.6803 8.90542 14.9 9.09333C15.3379 9.47074 15.7679 9.85613 16.1899 10.2499C17.0347 11.0363 17.8519 11.8508 18.6495 12.6856C19.4465 13.5208 20.2229 14.3771 20.9722 15.261C21.3471 15.7027 21.7139 16.1525 22.0727 16.6107C22.2514 16.8405 22.429 17.0714 22.6024 17.3067C22.7761 17.5415 22.9474 17.7789 23.1108 18.0242C22.8757 17.8519 22.6486 17.6716 22.4239 17.4888C22.1988 17.3063 21.978 17.1195 21.7582 16.9318C21.3202 16.5544 20.89 16.1691 20.4681 15.7753C19.6236 14.9886 18.8062 14.1742 18.0095 13.3387C17.2133 12.5027 16.4368 11.6464 15.6878 10.7622C15.3128 10.3205 14.9461 9.87065 14.5871 9.41264C14.4083 9.18299 14.2306 8.9522 14.0572 8.71694C13.8832 8.4823 13.7118 8.24514 13.5482 8Z" fill="black"/>
<path d="M16.6499 13.4636C16.6499 13.9639 16.2579 14.3695 15.774 14.3695C15.2906 14.3695 14.8987 13.9639 14.8987 13.4636C14.8987 12.9637 15.2906 12.5581 15.774 12.5581C16.2579 12.5581 16.6499 12.9636 16.6499 13.4636Z" fill="black"/>
<path d="M20.345 15.1421L18.7213 13.6923V10.9335H20.3426L20.345 15.1421Z" fill="black"/>
<path d="M3 24.6414C3.04961 24.4878 3.10889 24.3375 3.17084 24.1884C3.2328 24.0392 3.29957 23.892 3.36924 23.7461C3.50892 23.4546 3.66196 23.1692 3.82598 22.8898C4.15486 22.3315 4.52848 21.7978 4.94361 21.2959C5.35873 20.794 5.81581 20.3242 6.312 19.8962C6.55987 19.682 6.81813 19.4792 7.08481 19.2872C7.35223 19.0965 7.62774 18.916 7.91248 18.7505C8.48078 18.4176 9.08291 18.14 9.70619 17.9224C10.0182 17.8146 10.3349 17.7199 10.6558 17.643C10.8162 17.6041 10.9775 17.5691 11.1393 17.5375C11.3013 17.5066 11.4639 17.4796 11.6271 17.456C12.2796 17.3617 12.9395 17.3305 13.5949 17.3533C13.9228 17.3646 14.2495 17.3911 14.5743 17.4282C14.899 17.4663 15.2217 17.5174 15.5417 17.5786C15.8616 17.6409 16.1786 17.7146 16.4927 17.7974C16.6339 17.8351 16.7814 17.8721 16.9274 17.9075C17.0736 17.943 17.2203 17.9764 17.367 18.0089C17.6602 18.0748 17.9547 18.1325 18.2497 18.1856C18.5446 18.2389 18.8407 18.2836 19.137 18.3237C20.3224 18.4809 21.5192 18.525 22.7073 18.4212C23.0041 18.3944 23.3006 18.36 23.5956 18.314C23.891 18.2694 24.1848 18.2134 24.4772 18.1484C25.0619 18.0177 25.6399 17.8454 26.2061 17.6299C26.7723 17.4143 27.3268 17.1554 27.8635 16.8521C28.4007 16.5492 28.9192 16.2016 29.4182 15.8123C29.0294 16.3192 28.5761 16.7782 28.084 17.1914C27.5913 17.6042 27.057 17.9698 26.4934 18.2846C25.3659 18.9147 24.1232 19.3386 22.8505 19.5629C22.5323 19.62 22.2121 19.6633 21.8909 19.6969C21.7302 19.7137 21.5692 19.7266 21.4082 19.7377C21.2473 19.7486 21.0861 19.7573 20.9248 19.7623C20.6024 19.7726 20.2799 19.7737 19.9578 19.7631C19.7969 19.7579 19.6359 19.7511 19.4753 19.7411C19.3147 19.731 19.1542 19.7185 18.994 19.7041C18.6735 19.6758 18.3545 19.6358 18.0366 19.5897C17.7188 19.5432 17.4027 19.4868 17.0881 19.4244C16.9308 19.393 16.7741 19.3589 16.6179 19.3235C16.4614 19.2879 16.3069 19.2517 16.1472 19.2111C15.86 19.1368 15.571 19.0717 15.2812 19.0158C14.9916 18.9587 14.7007 18.9123 14.4093 18.8753C14.118 18.8373 13.8261 18.8113 13.5341 18.7947C12.9501 18.7616 12.3659 18.773 11.7865 18.8316C11.6416 18.8462 11.4971 18.8642 11.353 18.8852C11.2088 18.9057 11.0651 18.9293 10.9218 18.9564C10.6356 19.011 10.3508 19.0758 10.0694 19.155C9.50584 19.3112 8.95398 19.5187 8.41838 19.7714C7.88293 20.0246 7.36454 20.3246 6.86641 20.6642C6.36853 21.0041 5.89135 21.3843 5.43686 21.7975C4.98228 22.2108 4.55008 22.657 4.14232 23.1312C3.93819 23.3682 3.74048 23.6126 3.54924 23.8636C3.35845 24.1151 3.17278 24.3722 3 24.6414Z" fill="#FFCC29"/>
<path d="M3.20203 25.2447C3.26533 25.0966 3.33782 24.9527 3.41291 24.8101C3.48796 24.6676 3.56773 24.5275 3.65019 24.3889C3.8154 24.112 3.99355 23.8427 4.18205 23.5803C4.55966 23.0561 4.97962 22.5606 5.43814 22.1008C5.89665 21.641 6.39405 21.2171 6.92651 20.8388C7.19265 20.6492 7.46788 20.4722 7.75074 20.3068C8.03414 20.1426 8.3247 19.9894 8.62303 19.852C9.21884 19.5752 9.84333 19.3568 10.4835 19.2001C10.8038 19.1227 11.1276 19.059 11.4541 19.0132C11.6173 18.99 11.7809 18.9705 11.945 18.9547C12.1091 18.9395 12.2736 18.9282 12.438 18.9205C13.0962 18.8894 13.7559 18.9218 14.4065 19.0074C14.7319 19.0503 15.0548 19.1081 15.3749 19.1763C15.6948 19.2454 16.0114 19.3275 16.3246 19.4192C16.6375 19.512 16.9466 19.6158 17.2519 19.7285C17.3891 19.7796 17.5326 19.8306 17.6748 19.88C17.8172 19.9292 17.9601 19.9766 18.1033 20.0231C18.3892 20.1169 18.6773 20.2027 18.9663 20.2839C19.2553 20.3655 19.5459 20.4384 19.8375 20.5068C21.0036 20.7772 22.1911 20.9363 23.3834 20.9471C23.6813 20.9492 23.9796 20.9435 24.2776 20.926C24.5756 20.9101 24.8732 20.8825 25.1702 20.846C25.7642 20.7721 26.3551 20.6562 26.9382 20.496C27.5213 20.3357 28.0967 20.1314 28.6585 19.881C29.2206 19.6311 29.7679 19.3349 30.2999 18.9953C29.8671 19.4626 29.3746 19.8759 28.8475 20.24C28.3196 20.6036 27.7549 20.9163 27.1654 21.1755C25.9861 21.6944 24.7106 21.997 23.4234 22.0978C23.1014 22.1241 22.7785 22.1364 22.4558 22.139C22.2943 22.1403 22.1329 22.1377 21.9716 22.1332C21.8103 22.1285 21.6491 22.1217 21.4881 22.1111C21.1662 22.0903 20.8448 22.0605 20.5253 22.0189C20.3654 21.9982 20.2058 21.9759 20.0467 21.9505C19.8878 21.925 19.7291 21.8972 19.5708 21.8674C19.2543 21.8084 18.9402 21.738 18.6279 21.6615C18.3156 21.5846 18.006 21.498 17.6983 21.4056C17.5445 21.3592 17.3917 21.3102 17.2392 21.26C17.0866 21.2094 16.9361 21.1584 16.7808 21.1028C16.5013 21.001 16.2196 20.9085 15.936 20.825C15.6527 20.7403 15.3672 20.6661 15.0805 20.6012C14.794 20.5353 14.5055 20.4814 14.2164 20.4367C13.6379 20.3476 13.0552 20.3028 12.4731 20.3053C12.3275 20.3059 12.182 20.3099 12.0366 20.317C11.8911 20.3235 11.7459 20.3332 11.6009 20.3463C11.311 20.3733 11.0216 20.4103 10.7342 20.4621C10.159 20.5635 9.59096 20.7171 9.03496 20.9171C8.47905 21.1176 7.93598 21.3663 7.40954 21.6567C6.88315 21.9472 6.37392 22.2798 5.88426 22.6475C5.39454 23.0153 4.92403 23.4179 4.47536 23.851C4.25083 24.0673 4.03192 24.2915 3.81904 24.5231C3.60625 24.7552 3.39834 24.9933 3.20203 25.2447Z" fill="#C10023"/>
<path d="M3.40454 25.7333C3.48302 25.5933 3.57037 25.4584 3.65999 25.3252C3.74971 25.1919 3.84376 25.0617 3.94035 24.9333C4.13382 24.6767 4.33929 24.429 4.55427 24.1895C4.98502 23.7111 5.45478 23.2659 5.95903 22.8607C6.46323 22.4554 7.00238 22.0902 7.57162 21.7742C7.85617 21.616 8.14847 21.471 8.44705 21.3385C8.74612 21.2073 9.05113 21.0878 9.36215 20.9849C9.98359 20.777 10.6275 20.6304 11.2804 20.5469C11.6069 20.5062 11.9356 20.4793 12.2648 20.4707C12.4295 20.466 12.5943 20.4652 12.759 20.468C12.9236 20.4714 13.0883 20.4787 13.2526 20.4897C13.9102 20.533 14.5626 20.6397 15.2003 20.7984C15.5192 20.8776 15.834 20.9716 16.145 21.0755C16.4557 21.1803 16.7618 21.2976 17.0634 21.424C17.3647 21.5516 17.6609 21.6897 17.9525 21.8362C18.0833 21.9025 18.2208 21.9694 18.3568 22.0344C18.4932 22.0995 18.6303 22.1628 18.7678 22.2251C19.0422 22.3507 19.3194 22.4685 19.598 22.5818C19.8767 22.6955 20.158 22.8007 20.4404 22.9018C21.5713 23.3022 22.7348 23.5944 23.9189 23.7398C24.2147 23.7754 24.5118 23.8033 24.8098 23.8197C25.1077 23.8375 25.4064 23.8436 25.7056 23.8409C26.3038 23.8344 26.9034 23.786 27.5001 23.6926C28.0964 23.5991 28.69 23.4608 29.2747 23.2754C29.8598 23.0905 30.4353 22.8579 31 22.5803C30.5204 22.9959 29.9873 23.3512 29.4248 23.6536C28.8618 23.9553 28.2674 24.2025 27.6541 24.3936C26.4271 24.7763 25.1274 24.933 23.8372 24.888C23.5144 24.8777 23.1922 24.8535 22.8709 24.8197C22.7103 24.8027 22.5502 24.7818 22.3903 24.7593C22.2304 24.7364 22.0709 24.7114 21.9121 24.6828C21.5942 24.6257 21.278 24.5597 20.9647 24.4823C20.808 24.4438 20.6517 24.4037 20.4963 24.3604C20.3409 24.317 20.1861 24.2715 20.032 24.2241C19.7236 24.1298 19.4188 24.0242 19.1164 23.9129C18.8142 23.8012 18.5155 23.6802 18.2194 23.5537C18.0715 23.4902 17.9247 23.4241 17.7785 23.3571C17.6321 23.2896 17.4879 23.222 17.3394 23.1491C17.0724 23.0163 16.802 22.8926 16.529 22.7775C16.2563 22.6614 15.9805 22.5554 15.7023 22.4585C15.4244 22.3607 15.1434 22.2746 14.8607 22.1976C14.2951 22.0436 13.7205 21.9333 13.1414 21.8701C12.9967 21.8543 12.8517 21.842 12.7065 21.8325C12.5613 21.8226 12.4159 21.8159 12.2703 21.8125C11.9792 21.8065 11.6878 21.8106 11.3966 21.8297C10.8141 21.8655 10.2333 21.954 9.65944 22.0902C9.08582 22.2269 8.51961 22.4128 7.96565 22.6419C7.41183 22.8713 6.87047 23.1444 6.34492 23.4546C5.81932 23.7649 5.30918 24.112 4.81752 24.4918C4.57154 24.6815 4.33026 24.8796 4.09418 25.086C3.858 25.2925 3.62614 25.5056 3.40454 25.7333Z" fill="#C47D38"/>
</svg>
