<svg width="14" height="17" viewBox="0 0 14 17" fill="none" xmlns="http://www.w3.org/2000/svg">
<path d="M9.67081 2.06736C9.02888 1.35228 8.13228 0.958496 7.14267 0.958496C6.14777 0.958496 5.24821 1.3499 4.60924 2.06056C3.96335 2.77904 3.64866 3.75551 3.72255 4.80992C3.86901 6.89015 5.40325 8.58238 7.14267 8.58238C8.88208 8.58238 10.4137 6.89049 10.5625 4.8106C10.6373 3.76572 10.3207 2.79129 9.67081 2.06736ZM12.9484 16.2063H1.33691C1.18492 16.2083 1.03441 16.1754 0.896319 16.1098C0.758227 16.0443 0.63603 15.9478 0.538617 15.8275C0.3242 15.563 0.237773 15.2019 0.301769 14.8367C0.580181 13.2432 1.44907 11.9046 2.81474 10.9648C4.02801 10.1306 5.56489 9.67151 7.14267 9.67151C8.72045 9.67151 10.2573 10.131 11.4706 10.9648C12.8363 11.9042 13.7052 13.2428 13.9836 14.8364C14.0476 15.2015 13.9611 15.5627 13.7467 15.8271C13.6493 15.9476 13.5272 16.0441 13.3891 16.1097C13.251 16.1753 13.1004 16.2083 12.9484 16.2063Z" fill="white"/>
</svg>
