<svg width="15" height="15" viewBox="0 0 15 15" fill="none" xmlns="http://www.w3.org/2000/svg">
<path d="M7.47079 0.720703C3.68144 0.720703 0.609253 3.79289 0.609253 7.58224C0.609253 11.3716 3.68144 14.4438 7.47079 14.4438C11.2601 14.4438 14.3323 11.3716 14.3323 7.58224C14.3323 3.79289 11.2601 0.720703 7.47079 0.720703ZM10.6377 8.63786H7.47079C7.33081 8.63786 7.19656 8.58225 7.09757 8.48327C6.99859 8.38429 6.94298 8.25004 6.94298 8.11005V3.35976C6.94298 3.21977 6.99859 3.08552 7.09757 2.98654C7.19656 2.88755 7.33081 2.83195 7.47079 2.83195C7.61078 2.83195 7.74503 2.88755 7.84401 2.98654C7.94299 3.08552 7.9986 3.21977 7.9986 3.35976V7.58224H10.6377C10.7776 7.58224 10.9119 7.63785 11.0109 7.73683C11.1099 7.83582 11.1655 7.97007 11.1655 8.11005C11.1655 8.25004 11.1099 8.38429 11.0109 8.48327C10.9119 8.58225 10.7776 8.63786 10.6377 8.63786Z" fill="white"/>
</svg>
