<svg width="24" height="25" viewBox="0 0 24 25" fill="none" xmlns="http://www.w3.org/2000/svg">
<g opacity="0.4">
<path d="M13 15.7501C13 15.1533 13.2371 14.581 13.659 14.1591C14.081 13.7371 14.6533 13.5001 15.25 13.5001L18.75 13.5001C19.3467 13.5001 19.919 13.7371 20.341 14.1591C20.7629 14.581 21 15.1533 21 15.7501L21 19.2501C21 19.8468 20.7629 20.4191 20.341 20.8411C19.919 21.263 19.3467 21.5001 18.75 21.5001L15.25 21.5001C14.6533 21.5001 14.081 21.263 13.659 20.8411C13.2371 20.4191 13 19.8468 13 19.2501L13 15.7501ZM13 5.75006C13 5.15332 13.2371 4.58103 13.659 4.15907C14.081 3.73711 14.6533 3.50006 15.25 3.50006L18.75 3.50006C19.3467 3.50006 19.919 3.73711 20.341 4.15907C20.7629 4.58103 21 5.15332 21 5.75006L21 9.25006C21 9.8468 20.7629 10.4191 20.341 10.8411C19.919 11.263 19.3467 11.5001 18.75 11.5001L15.25 11.5001C14.6533 11.5001 14.081 11.263 13.659 10.8411C13.2371 10.4191 13 9.8468 13 9.25006L13 5.75006ZM3 15.7501C3 15.1533 3.23705 14.581 3.65901 14.1591C4.08097 13.7371 4.65326 13.5001 5.25 13.5001L8.75 13.5001C9.34674 13.5001 9.91903 13.7371 10.341 14.1591C10.7629 14.581 11 15.1533 11 15.7501L11 19.2501C11 19.8468 10.7629 20.4191 10.341 20.8411C9.91903 21.263 9.34674 21.5001 8.75 21.5001L5.25 21.5001C4.65326 21.5001 4.08097 21.263 3.65901 20.8411C3.23705 20.4191 3 19.8468 3 19.2501L3 15.7501ZM3 5.75006C3 5.15332 3.23705 4.58103 3.65901 4.15907C4.08097 3.73711 4.65326 3.50006 5.25 3.50006L8.75 3.50006C9.34674 3.50006 9.91903 3.73711 10.341 4.15907C10.7629 4.58103 11 5.15332 11 5.75006L11 9.25006C11 9.8468 10.7629 10.4191 10.341 10.8411C9.91903 11.263 9.34674 11.5001 8.75 11.5001L5.25 11.5001C4.65326 11.5001 4.08097 11.263 3.65901 10.8411C3.23705 10.4191 3 9.8468 3 9.25006L3 5.75006Z" fill="#474747"/>
<path d="M6 21.5001L6 13.502L18 13.502L18 21.5001L6 21.5001Z" fill="#474747"/>
<path d="M6 11.4981L6 3.50006L18 3.50006L18 11.4981L6 11.4981Z" fill="#474747"/>
</g>
</svg>
